<svg width="23" height="23" viewBox="0 0 23 23" fill="none" xmlns="http://www.w3.org/2000/svg">
<path d="M2.875 14.375V15.8125H6.17119L1.4375 20.5462L2.45381 21.5625L7.1875 16.8288V20.125H8.625V14.375H2.875Z" fill="#1D2A38"/>
<path d="M17.25 15.0938H18.6875V18.6875H17.25V15.0938Z" fill="#1D2A38"/>
<path d="M14.375 11.5H15.8125V18.6875H14.375V11.5Z" fill="#1D2A38"/>
<path d="M11.5 12.9375H12.9375V18.6875H11.5V12.9375Z" fill="#1D2A38"/>
<path d="M20.125 1.4375H2.875C2.49387 1.43788 2.12846 1.58945 1.85895 1.85895C1.58945 2.12846 1.43788 2.49387 1.4375 2.875V11.5H2.875V9.34375H20.1257L20.1264 20.125H11.5V21.5625H20.125C20.5061 21.5619 20.8714 21.4103 21.1408 21.1408C21.4103 20.8714 21.5619 20.5061 21.5625 20.125V2.875C21.5621 2.49387 21.4105 2.12846 21.141 1.85895C20.8715 1.58945 20.5061 1.43788 20.125 1.4375ZM8.625 7.90625H2.875V2.875H8.625V7.90625ZM10.0625 7.90625V2.875H20.125V7.90625H10.0625Z" fill="#1D2A38"/>
</svg>
