<svg width="21" height="20" viewBox="0 0 21 20" fill="none" xmlns="http://www.w3.org/2000/svg">
<path d="M4.25 0.5C3.78587 0.5 3.34075 0.684375 3.01256 1.01256C2.68437 1.34075 2.5 1.78587 2.5 2.25V4.75C2.5 5.716 3.284 6.5 4.25 6.5H6.75C7.21413 6.5 7.65925 6.31563 7.98744 5.98744C8.31563 5.65925 8.5 5.21413 8.5 4.75V2.25C8.5 1.78587 8.31563 1.34075 7.98744 1.01256C7.65925 0.684375 7.21413 0.5 6.75 0.5H4.25ZM11.5 2.25V4.75C11.5 5.716 12.284 6.5 13.25 6.5H15.75C16.2141 6.5 16.6592 6.31563 16.9874 5.98744C17.3156 5.65925 17.5 5.21413 17.5 4.75V2.25C17.5 1.78587 17.3156 1.34075 16.9874 1.01256C16.6592 0.684375 16.2141 0.5 15.75 0.5H13.25C12.7859 0.5 12.3408 0.684375 12.0126 1.01256C11.6844 1.34075 11.5 1.78587 11.5 2.25ZM13.25 2H15.75C15.8163 2 15.8799 2.02634 15.9268 2.07322C15.9737 2.12011 16 2.1837 16 2.25V4.75C16 4.8163 15.9737 4.87989 15.9268 4.92678C15.8799 4.97366 15.8163 5 15.75 5H13.25C13.1837 5 13.1201 4.97366 13.0732 4.92678C13.0263 4.87989 13 4.8163 13 4.75V2.25C13 2.1837 13.0263 2.12011 13.0732 2.07322C13.1201 2.02634 13.1837 2 13.25 2ZM4.5 8.5C3.30653 8.5 2.16193 8.97411 1.31802 9.81802C0.474106 10.6619 0 11.8065 0 13C0 14.1935 0.474106 15.3381 1.31802 16.182C2.16193 17.0259 3.30653 17.5 4.5 17.5H9.732C9.19097 16.4616 8.94179 15.2959 9.011 14.127C8.79981 13.9417 8.6449 13.7009 8.5639 13.4319C8.4829 13.1629 8.47908 12.8765 8.55287 12.6054C8.62666 12.3344 8.77509 12.0895 8.98126 11.8986C9.18742 11.7078 9.44304 11.5787 9.719 11.526C10.422 10.1637 11.5821 9.0924 12.996 8.5H4.5ZM5 14.5C4.60218 14.5 4.22064 14.342 3.93934 14.0607C3.65804 13.7794 3.5 13.3978 3.5 13C3.5 12.6022 3.65804 12.2206 3.93934 11.9393C4.22064 11.658 4.60218 11.5 5 11.5C5.39782 11.5 5.77936 11.658 6.06066 11.9393C6.34196 12.2206 6.5 12.6022 6.5 13C6.5 13.3978 6.34196 13.7794 6.06066 14.0607C5.77936 14.342 5.39782 14.5 5 14.5ZM21 14.5C21 15.9587 20.4205 17.3576 19.3891 18.3891C18.3576 19.4205 16.9587 20 15.5 20C14.0413 20 12.6424 19.4205 11.6109 18.3891C10.5795 17.3576 10 15.9587 10 14.5C10 13.0413 10.5795 11.6424 11.6109 10.6109C12.6424 9.57946 14.0413 9 15.5 9C16.9587 9 18.3576 9.57946 19.3891 10.6109C20.4205 11.6424 21 13.0413 21 14.5ZM18.854 12.146C18.8076 12.0994 18.7524 12.0625 18.6916 12.0373C18.6309 12.0121 18.5658 11.9991 18.5 11.9991C18.4342 11.9991 18.3691 12.0121 18.3084 12.0373C18.2476 12.0625 18.1924 12.0994 18.146 12.146L14.5 15.793L12.854 14.146C12.7601 14.0521 12.6328 13.9994 12.5 13.9994C12.3672 13.9994 12.2399 14.0521 12.146 14.146C12.0521 14.2399 11.9994 14.3672 11.9994 14.5C11.9994 14.6328 12.0521 14.7601 12.146 14.854L14.146 16.854C14.1924 16.9006 14.2476 16.9375 14.3084 16.9627C14.3691 16.9879 14.4342 17.0009 14.5 17.0009C14.5658 17.0009 14.6309 16.9879 14.6916 16.9627C14.7524 16.9375 14.8076 16.9006 14.854 16.854L18.854 12.854C18.9006 12.8076 18.9375 12.7524 18.9627 12.6916C18.9879 12.6309 19.0009 12.5658 19.0009 12.5C19.0009 12.4342 18.9879 12.3691 18.9627 12.3084C18.9375 12.2476 18.9006 12.1924 18.854 12.146Z" fill="#FF6600"/>
</svg>
