<svg width="24" height="24" viewBox="0 0 24 24" fill="none" xmlns="http://www.w3.org/2000/svg">
<path d="M6.25 3.5C5.78587 3.5 5.34075 3.68437 5.01256 4.01256C4.68437 4.34075 4.5 4.78587 4.5 5.25V7.75C4.5 8.716 5.284 9.5 6.25 9.5H8.75C9.21413 9.5 9.65925 9.31563 9.98744 8.98744C10.3156 8.65925 10.5 8.21413 10.5 7.75V5.25C10.5 4.78587 10.3156 4.34075 9.98744 4.01256C9.65925 3.68437 9.21413 3.5 8.75 3.5H6.25ZM13.5 5.25V7.75C13.5 8.716 14.284 9.5 15.25 9.5H17.75C18.2141 9.5 18.6592 9.31563 18.9874 8.98744C19.3156 8.65925 19.5 8.21413 19.5 7.75V5.25C19.5 4.78587 19.3156 4.34075 18.9874 4.01256C18.6592 3.68437 18.2141 3.5 17.75 3.5H15.25C14.7859 3.5 14.3408 3.68437 14.0126 4.01256C13.6844 4.34075 13.5 4.78587 13.5 5.25ZM15.25 5H17.75C17.8163 5 17.8799 5.02634 17.9268 5.07322C17.9737 5.12011 18 5.1837 18 5.25V7.75C18 7.8163 17.9737 7.87989 17.9268 7.92678C17.8799 7.97366 17.8163 8 17.75 8H15.25C15.1837 8 15.1201 7.97366 15.0732 7.92678C15.0263 7.87989 15 7.8163 15 7.75V5.25C15 5.1837 15.0263 5.12011 15.0732 5.07322C15.1201 5.02634 15.1837 5 15.25 5ZM6.5 11.5C5.30653 11.5 4.16193 11.9741 3.31802 12.818C2.47411 13.6619 2 14.8065 2 16C2 17.1935 2.47411 18.3381 3.31802 19.182C4.16193 20.0259 5.30653 20.5 6.5 20.5H11.732C11.191 19.4616 10.9418 18.2959 11.011 17.127C10.7998 16.9417 10.6449 16.7009 10.5639 16.4319C10.4829 16.1629 10.4791 15.8765 10.5529 15.6054C10.6267 15.3344 10.7751 15.0895 10.9813 14.8986C11.1874 14.7078 11.443 14.5787 11.719 14.526C12.422 13.1637 13.5821 12.0924 14.996 11.5H6.5ZM7 17.5C6.60218 17.5 6.22064 17.342 5.93934 17.0607C5.65804 16.7794 5.5 16.3978 5.5 16C5.5 15.6022 5.65804 15.2206 5.93934 14.9393C6.22064 14.658 6.60218 14.5 7 14.5C7.39782 14.5 7.77936 14.658 8.06066 14.9393C8.34196 15.2206 8.5 15.6022 8.5 16C8.5 16.3978 8.34196 16.7794 8.06066 17.0607C7.77936 17.342 7.39782 17.5 7 17.5ZM23 17.5C23 18.9587 22.4205 20.3576 21.3891 21.3891C20.3576 22.4205 18.9587 23 17.5 23C16.0413 23 14.6424 22.4205 13.6109 21.3891C12.5795 20.3576 12 18.9587 12 17.5C12 16.0413 12.5795 14.6424 13.6109 13.6109C14.6424 12.5795 16.0413 12 17.5 12C18.9587 12 20.3576 12.5795 21.3891 13.6109C22.4205 14.6424 23 16.0413 23 17.5ZM20.854 15.146C20.8076 15.0994 20.7524 15.0625 20.6916 15.0373C20.6309 15.0121 20.5658 14.9991 20.5 14.9991C20.4342 14.9991 20.3691 15.0121 20.3084 15.0373C20.2476 15.0625 20.1924 15.0994 20.146 15.146L16.5 18.793L14.854 17.146C14.7601 17.0521 14.6328 16.9994 14.5 16.9994C14.3672 16.9994 14.2399 17.0521 14.146 17.146C14.0521 17.2399 13.9994 17.3672 13.9994 17.5C13.9994 17.6328 14.0521 17.7601 14.146 17.854L16.146 19.854C16.1924 19.9006 16.2476 19.9375 16.3084 19.9627C16.3691 19.9879 16.4342 20.0009 16.5 20.0009C16.5658 20.0009 16.6309 19.9879 16.6916 19.9627C16.7524 19.9375 16.8076 19.9006 16.854 19.854L20.854 15.854C20.9006 15.8076 20.9375 15.7524 20.9627 15.6916C20.9879 15.6309 21.0009 15.5658 21.0009 15.5C21.0009 15.4342 20.9879 15.3691 20.9627 15.3084C20.9375 15.2476 20.9006 15.1924 20.854 15.146Z" fill="#1D2A38"/>
</svg>
